<svg width="100" height="100" viewBox="0 0 100 100" fill="none" xmlns="http://www.w3.org/2000/svg">
<path d="M99.8193 50C99.8193 77.5144 77.5144 99.8193 50 99.8193C22.4856 99.8193 0.180692 77.5144 0.180692 50C0.180692 22.4856 22.4856 0.180692 50 0.180692C77.5144 0.180692 99.8193 22.4856 99.8193 50Z" fill="white"/>
<path fill-rule="evenodd" clip-rule="evenodd" d="M51.8265 29.3056C51.2079 28.8948 50.446 28.7598 49.7239 28.9324L40.8494 31.0543C40.0232 31.2518 39.3392 31.8302 39.0093 32.6138L38.3433 34.1959C38.3328 34.2208 38.3223 34.2298 38.3149 34.2349C38.3045 34.2422 38.2875 34.2496 38.2652 34.2515C38.2428 34.2534 38.2246 34.2491 38.2128 34.2436C38.2044 34.2396 38.1921 34.2323 38.1773 34.2093C37.278 32.8094 35.1813 32.9557 34.4878 34.4703L31.9672 39.9753C31.7104 40.5363 31.6565 41.1689 31.8149 41.7653L32.3308 43.7067C32.4423 44.1264 32.1135 44.5433 31.6649 44.523L30.8593 44.4865C28.8056 44.3935 27.5485 46.7255 28.786 48.3835C29.0137 48.6885 28.753 49.1338 28.3547 49.0575L24.9243 48.4003C22.6431 47.9632 20.9135 50.4495 22.1566 52.4308L26.8789 59.9582C27.6617 61.2058 29.3082 61.5826 30.5571 60.805C30.8305 60.6347 31.0316 60.4025 31.1734 60.2141C31.3201 60.0191 31.4542 59.8008 31.5708 59.6053C31.5824 59.586 31.5938 59.5668 31.6051 59.5478L31.6834 59.4156C31.8865 59.0723 32.0648 58.7709 32.2814 58.5021C32.434 58.3126 32.5561 58.1344 32.6563 57.984C32.6685 57.9657 32.6801 57.9482 32.6913 57.9313C32.7038 57.9125 32.7157 57.8945 32.7271 57.8773L32.7289 57.8746C32.797 57.7716 32.8487 57.6935 32.9061 57.615C33.0318 57.4433 33.1348 57.3416 33.3104 57.25C33.6839 57.0552 34.0139 57.0732 34.4595 57.2901C34.9483 57.528 35.4409 57.941 36.0645 58.4638L36.1603 58.5441C36.2879 58.651 36.3909 58.7347 36.4752 58.8032C36.7695 59.0423 36.8369 59.0971 36.9316 59.3112C36.9334 59.3191 36.9384 59.3448 36.949 59.4135L36.9501 59.4207C36.9692 59.5453 37.0057 59.7831 37.1372 60.0529C37.489 60.7744 38.1326 61.3697 38.8908 61.6438C39.6833 61.9303 40.6423 61.8689 41.4232 61.1774L42.7166 60.032C42.7935 59.9639 42.8403 59.9529 42.8631 59.9492C42.8943 59.944 42.9578 59.9422 43.0695 59.9779C43.3019 60.0522 43.5935 60.2385 43.9304 60.521C43.9382 60.5524 43.9486 60.6029 43.9581 60.6782C43.9874 60.9132 43.9883 61.2032 43.9894 61.5794L43.9896 61.6228C43.9907 61.9777 43.9926 62.4311 44.0606 62.8309C44.1207 63.1837 44.2822 63.8281 44.8829 64.1829C45.3958 64.4857 45.9347 64.4807 46.3934 64.3227C46.8077 64.1799 47.1585 63.9147 47.4289 63.6753C47.7081 63.4282 47.9765 63.1395 48.2119 62.8813C48.237 62.8537 48.2618 62.8265 48.2862 62.7996L48.3502 62.7291L48.3505 62.7288C48.5408 62.5191 48.7106 62.332 48.8795 62.1636C49.4712 61.5733 49.7998 61.0071 50.0735 60.4986C50.0832 60.4806 50.0928 60.4627 50.1023 60.445L50.179 60.3014L50.1791 60.3012C50.4028 59.8814 50.5919 59.5265 50.9032 59.1284C51.2394 58.6983 51.5984 58.4332 52.0503 58.0995L52.0504 58.0994L52.0511 58.0989C52.1636 58.0159 52.2818 57.9285 52.4069 57.8334C53.0176 57.3687 53.6928 56.7685 54.0704 55.6917C54.3947 54.7671 54.3636 53.5392 54.3254 52.9028C54.3196 52.806 54.3111 52.7084 54.304 52.6266L54.3006 52.5881C54.2924 52.4927 54.2864 52.4169 54.2837 52.3466C54.2782 52.2053 54.2886 52.1369 54.2993 52.0998C54.3732 51.845 54.6014 51.65 54.8847 51.6298L56.2483 51.5328C57.1189 51.4709 57.9055 50.9882 58.3532 50.2382L60.5803 46.5067C60.9687 45.8559 61.0613 45.0708 60.8345 44.3475L60.8061 44.2572C60.7078 43.9437 60.8604 43.6035 61.1676 43.4686L65.3785 41.62C65.398 41.6114 65.4104 41.6094 65.4162 41.6088C65.4224 41.6082 65.4276 41.6086 65.4328 41.6097C65.4444 41.6122 65.4633 41.6204 65.4817 41.6389C65.5002 41.6575 65.5075 41.6754 65.5094 41.6848C65.5103 41.689 65.5106 41.6929 65.5101 41.6979C65.5096 41.7025 65.5078 41.7137 65.4994 41.7324L63.9029 45.2803C63.7691 45.5777 63.7868 45.8616 63.8105 46.0236C63.8368 46.2024 63.8911 46.3669 63.9458 46.5013C64.0558 46.7717 64.217 47.0412 64.3854 47.2686C64.5474 47.4874 64.7663 47.7356 65.0206 47.914C65.1425 47.9995 65.346 48.1217 65.6088 48.1672C65.91 48.2194 66.3028 48.1654 66.6154 47.8647L71.7417 43.0564C72.549 42.2993 72.8703 41.1572 72.5763 40.0902C72.4556 39.6524 72.6667 39.1475 73.1516 38.8973C73.7076 38.6104 74.3762 38.2268 74.7942 37.7903C74.9883 37.5877 75.307 37.1929 75.302 36.6493C75.2959 36.0029 74.8585 35.6054 74.5004 35.4042L72.2354 34.1313C71.9443 33.9677 71.6251 33.8601 71.2944 33.814L64.8191 32.9108C64.6626 32.889 64.5046 32.8811 64.3468 32.8871L57.8217 33.1372C57.6825 33.1425 57.5454 33.1039 57.4301 33.0273L51.8265 29.3056ZM36.9313 59.3097C36.931 59.3089 36.9309 59.3082 36.9309 59.3082L36.931 59.3085L36.9313 59.3097ZM50.1921 30.8907C50.3713 30.8478 50.56 30.8815 50.7126 30.9828L56.3162 34.7045C56.784 35.0152 57.3378 35.1706 57.8988 35.1491L64.4238 34.8991C64.463 34.8976 64.5022 34.8996 64.5409 34.905L71.0162 35.8081C71.0982 35.8195 71.1772 35.8462 71.249 35.8865L72.828 36.7739C72.6498 36.8832 72.4464 36.9955 72.2282 37.1081C70.9799 37.7524 70.2377 39.1827 70.6352 40.6251C70.7306 40.9714 70.6263 41.3421 70.3643 41.5879L65.8794 45.7946L67.3355 42.5586C68.1298 40.7933 66.3214 39.0071 64.5691 39.7764L60.3582 41.625C59.1152 42.1707 58.478 43.5624 58.885 44.8598L58.9133 44.9502C58.9684 45.1256 58.9461 45.3162 58.8514 45.4748L56.6243 49.2063C56.5151 49.3893 56.3217 49.5091 56.1054 49.5245L54.7418 49.6215C53.5946 49.7031 52.6676 50.4964 52.3654 51.5396C52.2693 51.8714 52.2623 52.1831 52.2718 52.4254C52.2766 52.547 52.2863 52.6639 52.2947 52.7612L52.2985 52.8053C52.3057 52.8884 52.3116 52.9559 52.3156 53.0235C52.3544 53.6693 52.3461 54.5244 52.1704 55.0254C51.9858 55.552 51.6797 55.8567 51.1877 56.2311C51.1083 56.2915 51.0207 56.3556 50.9269 56.4242C50.4599 56.7659 49.8396 57.2198 49.317 57.8882C48.89 58.4344 48.6174 58.9481 48.395 59.3672C48.3626 59.4284 48.3312 59.4875 48.3005 59.5445C48.0593 59.9927 47.8413 60.3553 47.4576 60.7381C47.2495 60.9456 47.0376 61.1793 46.8454 61.3911L46.7793 61.464C46.7606 61.4846 46.7421 61.5049 46.7239 61.5249C46.4886 61.7831 46.2844 61.9995 46.0943 62.1678C46.0671 62.1918 46.0415 62.2138 46.0174 62.2337C46.0065 62.0655 46.0037 61.8623 46.003 61.6166L46.0028 61.5317C46.0021 61.1994 46.0013 60.7909 45.9559 60.4283C45.9127 60.0832 45.8011 59.4758 45.3262 59.0652C44.9075 58.7031 44.3352 58.2687 43.6826 58.0601C42.9618 57.8297 42.1155 57.8749 41.3818 58.5247L40.0884 59.67C39.9433 59.7985 39.7872 59.8269 39.5753 59.7503C39.3316 59.6622 39.084 59.4452 38.9512 59.179C38.9493 59.1696 38.9453 59.1484 38.939 59.1075L38.9359 59.0872C38.9192 58.9762 38.8854 58.7512 38.7741 58.4992C38.4658 57.8011 37.9832 57.4209 37.63 57.1426C37.5663 57.0924 37.5068 57.0456 37.4533 57.0007C37.4046 56.96 37.355 56.9182 37.3044 56.8756L37.3041 56.8754C36.7427 56.4029 36.0642 55.8319 35.3407 55.4797C34.4838 55.0627 33.4619 54.9001 32.3792 55.4649C31.8524 55.7397 31.5299 56.0865 31.2815 56.4257C31.193 56.5467 31.1062 56.678 31.0332 56.7884C31.0148 56.8162 30.9973 56.8427 30.9809 56.8674C30.8917 57.0012 30.809 57.1203 30.7135 57.2389C30.3969 57.6318 30.1349 58.0767 29.9355 58.4152C29.9217 58.4387 29.9081 58.4617 29.8949 58.4842C29.8766 58.5151 29.859 58.5449 29.8419 58.5736C29.7282 58.764 29.6412 58.9017 29.5646 59.0035C29.5157 59.0684 29.4874 59.0963 29.4799 59.1037C29.1717 59.286 28.7734 59.1892 28.5845 58.8881L23.8621 51.3608C23.5646 50.8866 23.9724 50.2679 24.5455 50.3777L27.9758 51.0349C30.1576 51.4529 31.7397 48.9746 30.3995 47.1792C30.188 46.8958 30.3959 46.481 30.7682 46.4979L31.5738 46.5344C33.3702 46.6157 34.7403 44.9343 34.2767 43.1897L33.7608 41.2482C33.7224 41.1035 33.7354 40.95 33.7979 40.8135L36.3185 35.3085C36.3293 35.2847 36.34 35.2759 36.3477 35.2707C36.3584 35.2637 36.3753 35.2568 36.3971 35.2553C36.4188 35.2538 36.4367 35.2582 36.4484 35.2638C36.4571 35.2679 36.4691 35.2754 36.4834 35.2976C37.3984 36.722 39.5412 36.5398 40.199 34.9771L40.865 33.395C40.9453 33.2044 41.1127 33.0615 41.3176 33.0125L50.1921 30.8907Z" fill="black"/>
<path fill-rule="evenodd" clip-rule="evenodd" d="M67.0341 54.4171L67.0348 54.4147C67.1622 53.9901 67.3368 53.6338 67.5668 53.3578C67.793 53.0863 68.0611 52.8855 68.371 52.7642L68.3728 52.7635C68.6737 52.6483 68.9898 52.5911 69.3193 52.5911C69.6535 52.5911 69.9701 52.648 70.2667 52.7639C70.5815 52.8846 70.8525 53.0847 71.0793 53.3564C71.3162 53.6333 71.4911 53.9907 71.6128 54.4159C71.7428 54.844 71.8041 55.3612 71.8041 55.9608C71.8041 56.5775 71.7428 57.1086 71.6131 57.5477C71.4913 57.9733 71.3164 58.331 71.0793 58.6082C70.8525 58.8799 70.5815 59.08 70.2667 59.2007C69.9701 59.3166 69.6535 59.3734 69.3193 59.3734C68.9898 59.3734 68.6737 59.3162 68.3728 59.201L68.371 59.2003C68.0611 59.079 67.793 58.8783 67.5668 58.6068C67.3368 58.3307 67.1622 57.9744 67.0348 57.5499L67.0335 57.5455C66.9102 57.1076 66.8517 56.5773 66.8517 55.9608C66.8517 55.361 66.9102 54.8443 67.0341 54.4171ZM69.6895 57.695L69.6911 57.6932C69.7994 57.5669 69.8789 57.4129 69.9269 57.2257L69.9274 57.2239L69.9281 57.2212C69.9858 57.0114 70.02 56.7962 70.0305 56.5751C70.0418 56.3315 70.0474 56.127 70.0474 55.9608C70.0474 55.8624 70.0446 55.743 70.039 55.6021C70.0389 55.6003 70.0389 55.5984 70.0388 55.5966C70.0388 55.5949 70.0388 55.5931 70.0388 55.5914C70.0388 55.4563 70.0284 55.3177 70.0073 55.1754L70.007 55.1733L70.0066 55.17C70.0064 55.1686 70.0062 55.1672 70.0061 55.1658C69.9904 55.0246 69.9643 54.8862 69.9277 54.7506C69.9267 54.7468 69.9258 54.7429 69.9249 54.739C69.8963 54.6103 69.8523 54.5016 69.7955 54.4098C69.7411 54.3219 69.6742 54.2536 69.594 54.2015C69.5315 54.1609 69.4448 54.1331 69.3193 54.1331C69.1956 54.1331 69.1094 54.1602 69.0472 54.1998C68.9737 54.2507 68.9092 54.318 68.8542 54.4058C68.8 54.5017 68.7546 54.6151 68.7201 54.7482L68.7195 54.7506C68.683 54.8862 68.6568 55.0246 68.6412 55.1658C68.6249 55.3125 68.614 55.4561 68.6084 55.5966V55.9608C68.6084 56.1271 68.614 56.3317 68.6253 56.5754C68.6359 56.7972 68.6674 57.013 68.7197 57.2233C68.7738 57.4135 68.8549 57.5699 68.9598 57.6975C69.0308 57.784 69.1367 57.84 69.3193 57.84C69.5099 57.84 69.6176 57.7825 69.6874 57.6975L69.6895 57.695Z" fill="black"/>
<path d="M61.3567 63.0849C61.3443 62.715 61.3873 62.3669 61.4889 62.0428C61.5899 61.7147 61.7432 61.4249 61.9511 61.1777C62.1619 60.9212 62.4249 60.7247 62.736 60.5884C63.0564 60.4448 63.4152 60.3764 63.807 60.3764C64.11 60.3764 64.4004 60.4238 64.6763 60.5199C64.9574 60.6159 65.2076 60.7549 65.4239 60.9384C65.6432 61.1245 65.815 61.3531 65.9394 61.6205C66.073 61.8955 66.1372 62.1991 66.1372 62.5262C66.1372 62.8575 66.0841 63.1574 65.9677 63.4176C65.8585 63.6618 65.7132 63.8815 65.5324 64.0753L65.5292 64.0786C65.355 64.2591 65.1571 64.4227 64.9367 64.5698C64.7357 64.7076 64.5319 64.8454 64.3253 64.9831L64.3223 64.9851L64.3209 64.986C64.1226 65.1127 63.9296 65.2505 63.742 65.3995C63.7332 65.4065 63.7245 65.4135 63.7158 65.4206C63.7079 65.4271 63.7 65.4336 63.6922 65.4401C63.6836 65.4474 63.675 65.4547 63.6665 65.462H65.9031C66.0514 65.462 66.1715 65.5822 66.1715 65.7305V66.7785C66.1715 66.9268 66.0514 67.047 65.9031 67.047H61.4875C61.3392 67.047 61.2191 66.9268 61.2191 66.7785C61.2191 66.4051 61.271 66.068 61.3824 65.7731L61.3832 65.771L61.3843 65.7682C61.4975 65.4852 61.6495 65.231 61.8408 65.0074C62.0266 64.7848 62.242 64.582 62.4862 64.3989L62.4887 64.397C62.7256 64.2237 62.9738 64.0477 63.2332 63.869C63.3683 63.775 63.5116 63.6814 63.663 63.5881C63.7981 63.4996 63.9187 63.4043 64.0256 63.3025L64.0279 63.3003L64.0302 63.2983C64.1356 63.2025 64.2203 63.0962 64.2858 62.9792C64.2871 62.9768 64.2884 62.9745 64.2898 62.9722C64.3483 62.8748 64.3804 62.7602 64.3804 62.6207C64.3804 62.3837 64.3127 62.236 64.208 62.1383L64.2055 62.1359L64.204 62.1345L64.2013 62.1318C64.0919 62.0224 63.9486 61.9613 63.7469 61.9613C63.6142 61.9613 63.5172 61.9928 63.4428 62.0436L63.4405 62.0451C63.3595 62.0991 63.2909 62.1738 63.2355 62.2761L63.2343 62.2782L63.2332 62.2803C63.1745 62.3842 63.1293 62.5052 63.0999 62.6458C63.0744 62.7896 63.0618 62.9329 63.0618 63.076C63.0618 63.2242 62.9416 63.3444 62.7933 63.3444H61.625C61.4802 63.3444 61.3615 63.2296 61.3567 63.0849Z" fill="black"/>
<path d="M68.9775 62.0387H71.2348C71.3831 62.0387 71.5033 61.9185 71.5033 61.7702V60.7651C71.5033 60.6168 71.3831 60.4967 71.2348 60.4967H67.8759C67.7458 60.4967 67.6345 60.5899 67.6116 60.718L67.0189 64.0425C67.0049 64.1208 67.0263 64.2011 67.0774 64.262C67.1284 64.3229 67.2037 64.3581 67.2832 64.3581H68.3828C68.4688 64.3581 68.5497 64.3168 68.6002 64.2471C68.7039 64.1039 68.8044 64.0152 68.8972 63.9649C68.8997 63.9636 68.9022 63.9622 68.9046 63.9607C68.9886 63.9118 69.1151 63.8771 69.302 63.8771C69.4373 63.8771 69.5441 63.9003 69.629 63.9389C69.721 63.9807 69.7992 64.0384 69.8659 64.1134C69.9321 64.1879 69.9831 64.276 70.018 64.3807C70.0541 64.489 70.073 64.6062 70.073 64.734C70.073 64.8512 70.0528 64.9665 70.0115 65.0812L70.0104 65.0842L70.0094 65.0872C69.9741 65.193 69.9219 65.2862 69.8526 65.3686L69.8517 65.3696C69.7912 65.4422 69.7121 65.5062 69.6094 65.5601C69.526 65.6014 69.4255 65.6252 69.302 65.6252C69.084 65.6252 68.9256 65.5637 68.805 65.4555C68.6821 65.3398 68.6039 65.1828 68.5811 64.9639C68.5668 64.8271 68.4515 64.7232 68.314 64.7232H67.0942C67.0221 64.7232 66.9531 64.7522 66.9026 64.8036C66.8521 64.855 66.8245 64.9245 66.8258 64.9966C66.8321 65.3448 66.9021 65.663 67.043 65.945L67.0447 65.9482L67.0466 65.9519C67.19 66.219 67.3802 66.4458 67.6166 66.6296C67.8501 66.8112 68.1146 66.9461 68.4077 67.0354C68.4099 67.036 68.4121 67.0367 68.4143 67.0373C68.707 67.1182 69.011 67.1584 69.3252 67.1587C69.6605 67.1647 69.9805 67.1106 70.2828 66.9949C70.2843 66.9943 70.2859 66.9937 70.2874 66.9931C70.5869 66.872 70.8509 66.7019 71.0769 66.4827C71.3082 66.264 71.491 66.0068 71.6251 65.7131L71.626 65.7111C71.7624 65.4058 71.8297 65.0791 71.8297 64.734C71.8297 64.4268 71.7828 64.1344 71.6871 63.8587C71.597 63.5769 71.4603 63.3278 71.2752 63.1158C71.0948 62.9024 70.8721 62.7341 70.6112 62.6101C70.3404 62.4815 70.0365 62.4209 69.7057 62.4209C69.4389 62.4209 69.191 62.4621 68.9663 62.55C68.9561 62.5538 68.946 62.5576 68.9359 62.5616C68.9176 62.5687 68.8994 62.5762 68.8814 62.5841L68.9775 62.0387Z" fill="black"/>
<path d="M61.3567 55.2997C61.3615 55.4444 61.4802 55.5592 61.625 55.5592H62.7933C62.9416 55.5592 63.0618 55.439 63.0618 55.2907C63.0618 55.1477 63.0744 55.0043 63.0999 54.8605C63.1293 54.7199 63.1745 54.5989 63.2332 54.495L63.2345 54.4926L63.2355 54.4908C63.2909 54.3886 63.3595 54.3138 63.4405 54.2599L63.4428 54.2583C63.5172 54.2076 63.6142 54.1761 63.7469 54.1761C63.9486 54.1761 64.0919 54.2372 64.2013 54.3466C64.2035 54.3488 64.2057 54.3509 64.208 54.353C64.3127 54.4508 64.3804 54.5984 64.3804 54.8354C64.3804 54.9749 64.3483 55.0895 64.2898 55.187C64.2884 55.1893 64.2871 55.1916 64.2858 55.1939C64.2203 55.3109 64.1356 55.4172 64.0302 55.513L64.0283 55.5148L64.0256 55.5173C63.9187 55.6191 63.7981 55.7144 63.6631 55.8029C63.5116 55.8961 63.3683 55.9897 63.2333 56.0837C62.9738 56.2624 62.7256 56.4385 62.4887 56.6118L62.4862 56.6137C62.2421 56.7968 62.0266 56.9995 61.8409 57.2222C61.6495 57.4457 61.4975 57.7 61.3843 57.983L61.3831 57.9859L61.3824 57.9878C61.271 58.2828 61.2191 58.6198 61.2191 58.9933C61.2191 59.1415 61.3392 59.2617 61.4875 59.2617H65.9031C66.0514 59.2617 66.1715 59.1415 66.1715 58.9933V57.9452C66.1715 57.797 66.0514 57.6768 65.9031 57.6768H63.6665C63.6912 57.6554 63.7164 57.6346 63.742 57.6143C63.9296 57.4652 64.1226 57.3274 64.3209 57.2007L64.3234 57.1991L64.3253 57.1979C64.5319 57.0601 64.7358 56.9223 64.9367 56.7845C65.1572 56.6374 65.355 56.4738 65.5292 56.2933L65.5324 56.29C65.7132 56.0962 65.8585 55.8766 65.9677 55.6323C66.0841 55.3721 66.1372 55.0723 66.1372 54.7409C66.1372 54.4139 66.073 54.1103 65.9394 53.8353C65.815 53.5678 65.6432 53.3392 65.4239 53.1531C65.2076 52.9696 64.9574 52.8306 64.6763 52.7347C64.4003 52.6385 64.11 52.5911 63.807 52.5911C63.4152 52.5911 63.0564 52.6595 62.7361 52.8032C62.4249 52.9395 62.1619 53.136 61.9511 53.3924C61.7432 53.6397 61.5899 53.9294 61.4889 54.2575C61.3873 54.5816 61.3443 54.9298 61.3567 55.2997Z" fill="black"/>
<path d="M50.7626 67.0095C50.7626 66.4535 50.3119 66.0028 49.7559 66.0028C49.1999 66.0028 48.7492 66.4535 48.7492 67.0095V71.2079L45.9668 67.8678C45.611 67.4406 44.9762 67.3827 44.549 67.7386C44.1218 68.0944 44.064 68.7292 44.4198 69.1564L46.8226 72.0409L41.6607 70.4644C41.129 70.302 40.5662 70.6014 40.4038 71.1332C40.2415 71.6649 40.5409 72.2276 41.0726 72.39L49.4619 74.9522C49.6535 75.0107 49.8583 75.0107 50.05 74.9522L58.4392 72.39C58.971 72.2276 59.2704 71.6649 59.108 71.1332C58.9456 70.6014 58.3829 70.302 57.8511 70.4644L52.6892 72.0409L55.092 69.1564C55.4479 68.7292 55.39 68.0944 54.9628 67.7386C54.5356 67.3827 53.9009 67.4406 53.545 67.8678L50.7626 71.2079V67.0095Z" fill="black"/>
<path fill-rule="evenodd" clip-rule="evenodd" d="M13.7506 44.9208C13.5949 44.5403 13.2234 44.2926 12.8122 44.2953C12.4011 44.298 12.0328 44.5505 11.8821 44.933L8.39221 53.7921C8.18842 54.3094 8.44258 54.8939 8.95988 55.0977C9.47717 55.3015 10.0617 55.0474 10.2655 54.5301L11.0718 52.4832H14.6689L15.5112 54.5422C15.7217 55.0568 16.3095 55.3033 16.8241 55.0928C17.3387 54.8823 17.5852 54.2945 17.3747 53.7799L13.7506 44.9208ZM13.8452 50.4698H11.865L12.8364 48.0039L13.8452 50.4698Z" fill="black"/>
<path d="M87.1812 44.2953C87.7372 44.2953 88.1879 44.746 88.1879 45.302V46.0931H90.6711C91.2271 46.0931 91.6779 46.5439 91.6779 47.0999C91.6779 47.6204 91.2828 48.0486 90.7762 48.1012C90.7502 48.3173 90.7061 48.5566 90.6366 48.8168C90.3814 49.7727 89.795 50.9692 88.5707 52.3225C89.0734 52.7557 89.6465 53.1889 90.2722 53.5693C90.7473 53.8582 90.8983 54.4774 90.6095 54.9525C90.3206 55.4276 89.7014 55.5786 89.2263 55.2897C88.4339 54.808 87.7242 54.2614 87.1189 53.7279C86.595 54.1785 85.9992 54.642 85.3222 55.1159C84.8667 55.4348 84.239 55.3241 83.9201 54.8686C83.6013 54.4131 83.712 53.7854 84.1675 53.4665C84.7424 53.064 85.2463 52.6752 85.6878 52.3022C85.3771 51.9507 85.1349 51.6421 84.973 51.4102C84.6547 50.9544 84.7662 50.3268 85.222 50.0085C85.6779 49.6901 86.3054 49.8016 86.6238 50.2575C86.7292 50.4084 86.9033 50.6328 87.139 50.9034C88.1345 49.7852 88.5333 48.8893 88.6914 48.2973C88.7092 48.2303 88.7242 48.1667 88.7367 48.1066H83.6913C83.1353 48.1066 82.6846 47.6558 82.6846 47.0999C82.6846 46.5439 83.1353 46.0931 83.6913 46.0931H86.1745V45.302C86.1745 44.746 86.6252 44.2953 87.1812 44.2953Z" fill="black"/>
<path fill-rule="evenodd" clip-rule="evenodd" d="M56.019 7.31018C56.9193 7.14637 57.85 7.31044 58.64 7.77221L66.7421 12.5083C67.9942 13.2402 67.6612 15.1257 66.2348 15.3852L64.0633 15.7803L63.2968 20.1261C63.2907 20.1608 63.2838 20.1953 63.2762 20.2297C72.116 24.1415 78.8894 31.859 81.5069 41.3032C81.878 41.1553 82.283 41.0738 82.7069 41.0738H91.6555C93.447 41.0738 94.8993 42.5261 94.8993 44.3177V55.4139C94.8993 57.2054 93.447 58.6577 91.6555 58.6577H82.7069C82.3081 58.6577 81.9261 58.5856 81.5732 58.4539C78.908 68.3703 71.6697 76.4144 62.2547 80.2016L62.1476 79.9355V89.9543C62.1476 90.858 61.5009 91.5544 60.7132 91.7731L50.068 94.7284C49.8918 94.7773 49.7056 94.7773 49.5294 94.7284L38.8841 91.7731C38.0964 91.5544 37.4497 90.858 37.4497 89.9543V80.0253C28.2293 76.1621 21.1621 68.193 18.5478 58.406C18.1619 58.568 17.738 58.6577 17.2931 58.6577H8.34452C6.55299 58.6577 5.10067 57.2054 5.10067 55.4139V44.3177C5.10067 42.5261 6.55299 41.0738 8.34452 41.0738H17.2931C17.7632 41.0738 18.2099 41.174 18.613 41.3538C22.1805 28.4005 33.5651 18.6797 47.3876 17.5579C47.3936 17.4804 47.4033 17.4031 47.4168 17.3266L48.1833 12.9809L46.2781 11.8672C45.0259 11.1352 45.3589 9.24982 46.7853 8.99028L56.019 7.31018ZM48.2213 19.5177C51.7618 22.7754 57.5295 23.7622 61.9408 21.8463C70.8014 25.5715 77.5351 33.3402 79.8232 42.8313C79.5931 43.277 79.4631 43.783 79.4631 44.3177V55.4139C79.4631 55.9821 79.6099 56.5176 79.8674 56.9829C77.6401 66.4842 70.9636 74.2825 62.1476 78.0658V75.8548C62.1476 75.2061 61.8041 74.6379 61.2949 74.3006C60.7915 73.9671 60.1628 73.8771 59.5904 74.0361L49.7987 76.7544L40.0069 74.0361C39.4345 73.8771 38.8059 73.9671 38.3024 74.3006C37.7932 74.6379 37.4497 75.2061 37.4497 75.8548V77.8294C28.8448 73.939 22.3654 66.1917 20.2249 56.8031C20.425 56.3814 20.5369 55.9099 20.5369 55.4139V44.3177C20.5369 43.857 20.4403 43.4172 20.2661 43.0188C23.2945 30.0961 34.5503 20.3288 48.2213 19.5177ZM50.0367 14.0643L49.3996 17.6763C49.3852 17.758 49.4001 17.8257 49.4229 17.8695C49.433 17.8887 49.4452 17.9049 49.4597 17.9188C52.4086 20.7395 57.4383 21.6262 61.1745 19.9839C61.194 19.9753 61.212 19.9634 61.229 19.9472C61.2646 19.9134 61.3 19.8557 61.314 19.7764L61.951 16.1646L57.0011 17.0653C56.1008 17.2291 55.1701 17.065 54.3801 16.6033L50.0367 14.0643ZM57.6239 9.51044C57.2491 9.29135 56.8067 9.21335 56.3795 9.29108L48.3577 10.7507L55.3962 14.865C55.771 15.0841 56.2135 15.1621 56.6407 15.0844L64.6624 13.6248L57.6239 9.51044ZM39.4684 75.9761L48.7919 78.5645V92.4341L39.4631 89.8443V75.9748L39.4647 75.9752L39.4655 75.9754L39.4673 75.9758L39.4684 75.9761ZM60.1342 89.8443L50.8054 92.4341V78.5645L60.129 75.9761L60.1302 75.9758L60.1315 75.9754C60.1324 75.9752 60.1333 75.975 60.1342 75.9748V89.8443ZM7.11409 44.3177C7.11409 43.6381 7.66497 43.0873 8.34452 43.0873H17.2931C17.7367 43.0873 18.1265 43.3214 18.3443 43.6776C18.4578 43.8634 18.5235 44.0813 18.5235 44.3177V55.4139C18.5235 55.6661 18.4487 55.8978 18.3203 56.0917C18.0983 56.4268 17.7209 56.6443 17.2931 56.6443H8.34452C7.66497 56.6443 7.11409 56.0934 7.11409 55.4139V44.3177ZM81.7111 43.5948C81.9365 43.2852 82.2986 43.0873 82.7069 43.0873H91.6555C92.335 43.0873 92.8859 43.6381 92.8859 44.3177V55.4139C92.8859 56.0934 92.335 56.6443 91.6555 56.6443H82.7069C82.3135 56.6443 81.9635 56.4608 81.7366 56.1706C81.5733 55.9617 81.4765 55.7005 81.4765 55.4139V44.3177C81.4765 44.046 81.5634 43.7976 81.7111 43.5948Z" fill="black"/>
<path fill-rule="evenodd" clip-rule="evenodd" d="M0 50C0 22.3858 22.3858 0 50 0C77.6142 0 100 22.3858 100 50C100 77.6142 77.6142 100 50 100C22.3858 100 0 77.6142 0 50ZM50 2.01342C23.4977 2.01342 2.01342 23.4977 2.01342 50C2.01342 76.5023 23.4977 97.9866 50 97.9866C76.5023 97.9866 97.9866 76.5023 97.9866 50C97.9866 23.4977 76.5023 2.01342 50 2.01342Z" fill="black"/>
<path d="M41.5576 11.5761C42.1008 11.4572 42.4447 10.9205 42.3258 10.3774C42.2069 9.83424 41.6702 9.49033 41.1271 9.60923C39.7001 9.92161 38.2996 10.3082 36.93 10.7648C36.4025 10.9407 36.1175 11.5108 36.2934 12.0383C36.4692 12.5657 37.0394 12.8508 37.5668 12.6749C38.8692 12.2407 40.2008 11.8731 41.5576 11.5761Z" fill="black"/>
<path d="M30.1077 16.0677C30.587 15.7858 30.747 15.1688 30.4652 14.6896C30.1833 14.2103 29.5663 14.0503 29.0871 14.3321C27.8416 15.0646 26.6372 15.8608 25.4786 16.7164C25.0314 17.0467 24.9366 17.6771 25.2669 18.1243C25.5972 18.5715 26.2275 18.6663 26.6748 18.336C27.7771 17.5219 28.9229 16.7645 30.1077 16.0677Z" fill="black"/>
<path d="M71.8338 14.819C71.3626 14.524 70.7414 14.6668 70.4463 15.1381C70.1513 15.6093 70.2941 16.2305 70.7653 16.5256C78.6749 21.478 84.6601 29.1571 87.463 38.1806C87.628 38.7116 88.1921 39.0083 88.7231 38.8434C89.254 38.6784 89.5508 38.1143 89.3858 37.5833C86.4383 28.0945 80.147 20.0241 71.8338 14.819Z" fill="black"/>
<path d="M20.6183 23.8677C20.9877 23.4522 20.9502 22.8158 20.5347 22.4465C20.1191 22.0771 19.4828 22.1145 19.1134 22.5301C18.1524 23.6113 17.2469 24.744 16.4016 25.9238C16.0778 26.3757 16.1817 27.0046 16.6337 27.3284C17.0857 27.6522 17.7146 27.5483 18.0384 27.0964C18.8424 25.974 19.7039 24.8964 20.6183 23.8677Z" fill="black"/>
<path d="M13.9851 34.2283C14.2076 33.7187 13.9749 33.1253 13.4653 32.9029C12.9558 32.6804 12.3623 32.9132 12.1399 33.4227C11.5646 34.7404 11.0558 36.0949 10.618 37.4822C10.4506 38.0124 10.7447 38.5779 11.275 38.7453C11.8052 38.9126 12.3706 38.6185 12.538 38.0883C12.9544 36.7692 13.4381 35.4812 13.9851 34.2283Z" fill="black"/>
<path d="M12.9717 62.0029C12.9125 61.4501 12.4163 61.0499 11.8635 61.1092C11.3107 61.1684 10.9105 61.6646 10.9698 62.2174L11.5738 67.855C11.6018 68.1165 11.7311 68.3567 11.9339 68.5241L15.9288 71.8214L17.5852 77.2368C17.6686 77.5093 17.8635 77.7336 18.1216 77.8543L23.0107 80.1402L25.6713 84.5744C25.7961 84.7825 25.9919 84.9384 26.2226 85.0136L32.1958 86.9599C32.7244 87.1322 33.2926 86.8433 33.4648 86.3146C33.6371 85.786 33.3482 85.2178 32.8196 85.0456L27.2042 83.2158L24.579 78.8405C24.4758 78.6686 24.3237 78.5314 24.1421 78.4465L19.3797 76.2199L17.7656 70.9432C17.7079 70.7545 17.596 70.5869 17.4438 70.4613L13.532 67.2325L12.9717 62.0029Z" fill="black"/>
<path d="M87.9949 61.1927C88.5386 61.0767 89.0735 61.4235 89.1895 61.9672L89.1902 61.9709L89.1913 61.9758C89.192 61.9795 89.193 61.9841 89.1941 61.9896C89.1951 61.9948 89.1963 62.0008 89.1976 62.0076C89.199 62.0149 89.2006 62.0231 89.2023 62.0321C89.2088 62.0669 89.2172 62.1145 89.2264 62.1736C89.2449 62.2915 89.267 62.4561 89.2841 62.6555C89.318 63.051 89.3337 63.6012 89.254 64.205C89.096 65.4017 88.5294 66.9771 86.8078 67.7863C85.0222 68.6257 84.9224 70.0809 84.8384 71.3076C84.8302 71.4261 84.8223 71.5424 84.8129 71.6558C84.808 71.7164 84.8033 71.7904 84.798 71.8758C84.7611 72.4639 84.6903 73.5934 84.2384 74.6274C83.9689 75.2441 83.5526 75.865 82.9067 76.357C82.2574 76.8515 81.4309 77.1736 80.4092 77.2732C78.9605 77.4145 78.3807 77.9494 78.0687 78.4457C77.8911 78.7282 77.7688 79.0507 77.664 79.4109C77.6173 79.5712 77.5772 79.7275 77.5348 79.8927L77.5178 79.9587C77.4714 80.1392 77.4188 80.3407 77.3566 80.5295C77.3391 80.5828 77.3203 80.6419 77.2999 80.706L77.2997 80.7069C77.1127 81.295 76.7917 82.3047 76.0795 83.128C75.2186 84.1231 73.8858 84.7626 71.8892 84.6001C70.5101 84.4879 69.6428 84.9999 69.1028 85.5186C68.8235 85.7869 68.6265 86.064 68.5005 86.2725C68.4381 86.3758 68.3948 86.4597 68.3688 86.5132C68.3559 86.5399 68.3474 86.5588 68.3432 86.5685L68.3411 86.5733L68.3403 86.575C68.1331 87.0874 67.5509 87.3373 67.0363 87.1334C66.5194 86.9286 66.2668 86.3425 66.4716 85.8256L66.472 85.8245L66.4752 85.8167L66.4781 85.8095L66.481 85.8025L66.4839 85.7956L66.4875 85.7871C66.4907 85.7796 66.4943 85.7711 66.4984 85.7619C66.5045 85.7478 66.5117 85.7318 66.5198 85.714C66.5304 85.6908 66.5427 85.6645 66.5568 85.6353C66.6067 85.5325 66.6792 85.3936 66.7772 85.2314C66.9721 84.9087 67.2742 84.4833 67.708 84.0666C68.5941 83.2154 70.0087 82.427 72.0525 82.5933C73.4786 82.7094 74.1593 82.2701 74.5568 81.8107C74.9833 81.3177 75.1829 80.7033 75.3848 80.082C75.3969 80.0447 75.409 80.0073 75.4212 79.97C75.4288 79.9468 75.4364 79.9236 75.4441 79.9003C75.4826 79.7831 75.5202 79.6424 75.5679 79.4569L75.5843 79.3931C75.626 79.2305 75.6745 79.0416 75.7308 78.8481C75.8594 78.4065 76.0444 77.8826 76.3642 77.3741C77.0467 76.2884 78.2212 75.4636 80.2138 75.2693C80.9128 75.2011 81.3723 74.9947 81.6868 74.7552C82.0047 74.513 82.2303 74.1944 82.3934 73.8211C82.6905 73.1414 82.7415 72.406 82.7841 71.793C82.7913 71.6884 82.7984 71.5873 82.8063 71.4907C82.8132 71.4065 82.8187 71.3076 82.8249 71.1961C82.8916 69.9931 83.0392 67.333 85.9513 65.9642C86.7996 65.5654 87.1456 64.7918 87.2579 63.9415C87.3133 63.5218 87.3035 63.1241 87.2781 62.8274C87.2655 62.6808 87.2495 62.5633 87.2373 62.4856C87.2313 62.4469 87.2262 62.4184 87.223 62.4015C87.2221 62.3966 87.2214 62.3927 87.2208 62.3898L87.2199 62.3853L87.2199 62.3851L87.2197 62.3841C87.1057 61.8414 87.4522 61.3085 87.9949 61.1927Z" fill="black"/>
</svg>
